<svg id="Calque_1" data-name="Calque 1" xmlns="http://www.w3.org/2000/svg" width="300" height="600" viewBox="0 0 300 600"><defs><style>.cls-1{fill:#086bc0;}.cls-2{isolation:isolate;}.cls-3{fill:#fff;}</style></defs><g id="Bouton"><path id="Rectangle_2" data-name="Rectangle 2" class="cls-1" d="M107.28,531.98h91.43a21.03,21.03,0,0,1,21.03,21.03h0a21.03,21.03,0,0,1-21.03,21.03H107.28a21.03,21.03,0,0,1-21.03-21.03h0A21.03,21.03,0,0,1,107.28,531.98Z"/><g id="Buy_now" data-name="Buy now" class="cls-2"><g class="cls-2"><path class="cls-3" d="M110.1523,548.0059a1.0417,1.0417,0,0,1,1.0743-1.1329h4.16c2.7539,0,4.2578,1.1524,4.2578,3.2813a2.718,2.718,0,0,1-2.2265,2.7148,3.0933,3.0933,0,0,1,2.7343,3.1055c0,2.3633-1.5039,3.5352-4.8046,3.5352h-4.1211a1.0416,1.0416,0,0,1-1.0743-1.1328Zm4.9805,4.375c1.4844,0,2.4219-.7813,2.4219-1.9922,0-1.25-.82-1.8946-2.4609-1.8946h-2.9493v3.8868Zm.0781,5.5078c2.0313,0,2.8711-.6055,2.8711-2.07q0-1.9923-2.8125-1.9922h-3.125v4.0625Z"/><path class="cls-3" d="M122.0654,547.7129a.8.8,0,0,1,.8594-.918h.2734c.586,0,.8789.3125.8789.918v6.6016c0,2.4023,1.0547,3.6523,3.1446,3.6523,2.1289,0,3.1445-1.2109,3.1445-3.6719v-6.582c0-.625.293-.918.8594-.918h.3125c.5664,0,.84.293.84.918v6.6211c0,3.5156-1.8164,5.41-5.1758,5.41s-5.1367-1.8554-5.1367-5.3711Z"/><path class="cls-3" d="M138.1582,554.334l-4.4727-6.7188c-.0585-.1367.3125-.82,1.27-.82a1.148,1.148,0,0,1,.9765.7031l3.2422,5.1563,3.2422-5.1563a1.2135,1.2135,0,0,1,.9961-.7031c.8789,0,1.2891.7031,1.2109.82L140.17,554.334V558.67c0,.6055-.2929.918-.8789.918h-.2734c-.5664,0-.8594-.3125-.8594-.918Z"/><path class="cls-3" d="M149.4268,547.9277c0-.6836.332-1.1328.957-1.1328h.332c.6055,0,.84.2539,1.211.7617l6.25,8.8672v-8.7109c0-.6055.2539-.918.84-.918h.2344c.5469,0,.82.3125.82.918v10.7422c0,.7031-.3516,1.1328-.9375,1.1328h-.1563a1.0748,1.0748,0,0,1-1.0742-.6055l-6.582-9.3164V558.67c0,.6055-.2734.918-.8594.918h-.2148c-.5664,0-.82-.3125-.82-.918Z"/><path class="cls-3" d="M168.6445,546.6191a6.5747,6.5747,0,1,1-6.4062,6.6016A6.2586,6.2586,0,0,1,168.6445,546.6191Zm0,11.3672c2.5586,0,4.3555-1.9531,4.3555-4.7656s-1.8164-4.8242-4.375-4.8242-4.3555,1.9531-4.3555,4.7851C164.27,555.9941,166.0859,557.9863,168.6445,557.9863Z"/><path class="cls-3" d="M176.0654,547.3613a1.2489,1.2489,0,0,1,1.1914-.5664c.5274,0,.9766.3125,1.1719,1.1719l2.0508,9.2969,2.4023-7.9492a1.1736,1.1736,0,0,1,1.3282-.918,1.198,1.198,0,0,1,1.3281.918l2.3633,7.91,2.09-9.2773c.1758-.82.5469-1.1524,1.1133-1.1524.7422,0,1.1719.4688,1.1328.5664l-2.91,11.4844c-.1367.5859-.5078.8008-1.3671.8008-.7813,0-1.1329-.2344-1.3086-.82l-2.4414-8.1641-2.5586,8.1641c-.1563.5859-.4883.82-1.27.82-.8593,0-1.23-.1953-1.3672-.8008Z"/></g></g></g></svg>