<svg id="Calque_1" data-name="Calque 1" xmlns="http://www.w3.org/2000/svg"  width="300" height="600" viewBox="0 0 300 600"><defs><style>.cls-1{isolation:isolate;}.cls-2{fill:#fff;}</style></defs><g id="It_s_Windsor_Sea_Salt" data-name="It s Windsor Sea Salt" class="cls-1"><g class="cls-1"><path class="cls-2" d="M65.8467,135.7217c0-1.0537.51-1.5977,1.4961-1.5977h.4756c1.02,0,1.53.544,1.53,1.5977v19.0722c0,1.0538-.51,1.5977-1.53,1.5977h-.4756c-.9864,0-1.4961-.5439-1.4961-1.5977Z"/><path class="cls-2" d="M75.2988,142.6572h-1.19c-1.0537,0-1.4619-.4424-1.4619-1.2578v-.2383c0-.8154.4082-1.2578,1.4619-1.2578h1.19v-2.5156c0-1.1563.5772-1.5977,1.4951-1.5977h.34c.8848,0,1.4619.34,1.4619,1.5977v2.5156h3.7061c1.0537,0,1.4277.4082,1.4277,1.2237v.2382c0,.85-.4082,1.292-1.4619,1.292H78.5625v8.2608c0,2.04.5771,3.0263,2.1758,3.0263a2.7689,2.7689,0,0,0,2.3115-1.1562c.1016-.1016.9522.374.9522,1.4277,0,1.2578-1.3946,2.4824-3.8077,2.4824-3.3662,0-4.8955-1.87-4.8955-5.4062Z"/><path class="cls-2" d="M85.43,141.1953l1.8017-5.7793c.34-1.0879.5782-1.5976,1.7686-1.5976h.3057c.85,0,1.4277.5439,1.4277,1.5976v.1358a3.508,3.508,0,0,1-.7822,2.0742L87.13,141.9434C86.6543,142.5557,85.124,142.1816,85.43,141.1953Z"/><path class="cls-2" d="M94.168,151.666a6.7283,6.7283,0,0,0,5.5068,2.4483c2.3115,0,3.6035-.8506,3.6035-2.21,0-1.666-1.5293-1.9717-4.2148-2.55-2.4141-.51-5.7461-1.2578-5.7461-4.7256,0-3.06,2.55-5.1338,6.5273-5.1338,4.1817,0,6.29,1.7686,6.29,3.2979a1.79,1.79,0,0,1-1.36,1.5644,5.9117,5.9117,0,0,0-4.793-2.3125c-2.3125,0-3.5361.8848-3.5361,2.2442,0,1.4961,1.4277,1.8359,4.08,2.414,2.5156.544,6.0166,1.292,6.0166,4.8272,0,3.1279-2.583,5.1338-6.7988,5.1338-4.5557,0-6.9014-1.9043-6.9014-3.4678A1.7206,1.7206,0,0,1,94.168,151.666Z"/><path class="cls-2" d="M115.1455,135.11a2.1727,2.1727,0,0,1,2.0733-.9864c.9179,0,1.7.544,2.04,2.04l3.5693,16.1826L127.01,138.51a2.0434,2.0434,0,0,1,2.3125-1.5977,2.0853,2.0853,0,0,1,2.3115,1.5977l4.1133,13.7685,3.6377-16.1484c.3056-1.4278.9521-2.0059,1.9375-2.0059,1.292,0,2.04.8164,1.9726.9864L138.2285,155.1c-.2373,1.02-.8838,1.3945-2.3789,1.3945-1.36,0-1.9726-.4082-2.2783-1.4277l-4.249-14.2109-4.4541,14.2109c-.2715,1.02-.85,1.4277-2.21,1.4277-1.4951,0-2.1416-.34-2.38-1.3945Z"/><path class="cls-2" d="M146.1875,134.5322a1.7939,1.7939,0,0,1,2.04-1.9043,1.7566,1.7566,0,0,1,1.9717,1.9043c0,1.2237-.7138,1.87-2.0058,1.87A1.7741,1.7741,0,0,1,146.1875,134.5322Zm.3057,6.833c0-1.2236.6464-1.6318,1.53-1.6318h.34c.8838,0,1.4961.374,1.4961,1.6318v13.4287c0,1.2237-.6123,1.5977-1.4961,1.5977h-.34c-.8838,0-1.53-.374-1.53-1.5977Z"/><path class="cls-2" d="M154.1768,140.1074a1.6741,1.6741,0,0,1,1.2246-.374c.9853,0,2.0058.51,2.1074,2.6514a6.3358,6.3358,0,0,1,5.4394-2.89c4.3174,0,6.3233,2.958,6.3233,7.0039v8.2949c0,1.2237-.6455,1.5977-1.4961,1.5977h-.374c-.8838,0-1.4952-.374-1.4952-1.5977v-7.8867c0-2.7539-1.3945-4.4541-3.7744-4.4541a4.9409,4.9409,0,0,0-4.5888,2.8555v9.4853c0,1.2237-.6465,1.5977-1.4961,1.5977h-.374c-.8838,0-1.4961-.374-1.4961-1.5977Z"/><path class="cls-2" d="M180.0166,139.4951a6.6017,6.6017,0,0,1,5.6094,2.6865v-8.9072a1.7431,1.7431,0,0,1,1.2236-.374c1.0537,0,2.1416.5439,2.1416,2.89v19.0039c0,1.2237-.6123,1.5977-1.4961,1.5977h-.34c-.8838,0-1.4961-.374-1.4961-1.5977v-1.2578a6.5365,6.5365,0,0,1-5.7451,3.1621c-4.3858,0-7.6495-3.4345-7.6495-8.6015S175.4941,139.4951,180.0166,139.4951Zm.5439,14.4151a4.9224,4.9224,0,0,0,5.0987-4.794v-3.4678a5.1031,5.1031,0,0,0-5.0313-3.3652c-3.06,0-5.1,2.3115-5.1,5.8135C175.5283,151.4961,177.6367,153.91,180.5605,153.91Z"/><path class="cls-2" d="M193.2764,151.666a6.73,6.73,0,0,0,5.5078,2.4483c2.3115,0,3.6035-.8506,3.6035-2.21,0-1.666-1.53-1.9717-4.2158-2.55-2.4141-.51-5.7451-1.2578-5.7451-4.7256,0-3.06,2.55-5.1338,6.5273-5.1338,4.1816,0,6.2891,1.7686,6.2891,3.2979a1.79,1.79,0,0,1-1.3594,1.5644,5.9137,5.9137,0,0,0-4.794-2.3125c-2.3115,0-3.5351.8848-3.5351,2.2442,0,1.4961,1.4277,1.8359,4.0791,2.414,2.5156.544,6.0176,1.292,6.0176,4.8272,0,3.1279-2.584,5.1338-6.8,5.1338-4.5557,0-6.9014-1.9043-6.9014-3.4678A1.7216,1.7216,0,0,1,193.2764,151.666Z"/><path class="cls-2" d="M216.5312,139.4951a8.6016,8.6016,0,1,1-8.6015,8.5674A8.2577,8.2577,0,0,1,216.5312,139.4951Zm-.0341,14.4492a5.4859,5.4859,0,0,0,5.4394-5.8134c0-3.3995-2.2773-5.8819-5.4394-5.8819a5.4929,5.4929,0,0,0-5.4737,5.8135A5.5515,5.5515,0,0,0,216.4971,153.9443Z"/><path class="cls-2" d="M228.2285,140.1074a1.6731,1.6731,0,0,1,1.2236-.374c.9854,0,2.0733.5439,2.1075,2.8555a4.14,4.14,0,0,1,4.1474-3.0938c1.7,0,2.6856.8164,2.6856,2.1758a1.6752,1.6752,0,0,1-1.02,1.7344,3.1661,3.1661,0,0,0-2.0732-.7139c-2.6523,0-3.706,2.584-3.706,6.3574v5.7451c0,1.2237-.6456,1.5977-1.4961,1.5977h-.3741c-.8838,0-1.4951-.374-1.4951-1.5977Z"/></g><g class="cls-1"><path class="cls-2" d="M87.76,184.21c0-1.6319,2.0058-3.4,2.2441-3.23a10.6908,10.6908,0,0,0,6.459,2.5156c2.0742,0,3.0264-.5781,3.0264-1.6992,0-1.36-1.7-1.5987-3.876-2.04-3.6719-.7822-7.3438-2.21-7.3438-6.7656,0-4.5215,3.3321-7.207,9.35-7.207a12.3116,12.3116,0,0,1,6.4932,1.4277,3.19,3.19,0,0,1,1.7676,2.7539,4.558,4.558,0,0,1-2.4131,3.4336,9.0154,9.0154,0,0,0-5.78-2.38c-1.9717,0-2.9228.5782-2.9228,1.7,0,1.2578,1.7334,1.3936,4.0107,1.9033,4.3184.918,7.6152,2.6856,7.6152,6.7315,0,4.7939-3.331,7.3769-9.8925,7.3769-3.4336,0-5.7451-.68-7.1055-1.6318A3.3774,3.3774,0,0,1,87.76,184.21Z"/><path class="cls-2" d="M116.7607,171.0537c5.1338,0,8.7032,3.5352,8.7032,8.3975v.3056c-.0342.9854-.3057,1.5635-1.3262,1.5635H113.3955a1.96,1.96,0,0,0,.1357.4766,3.7231,3.7231,0,0,0,3.876,2.5156,4.2588,4.2588,0,0,0,4.0108-2.04c.0341-.0684,3.0937.0341,3.0937,2.5156a3.3258,3.3258,0,0,1-1.9033,2.8223,11.1027,11.1027,0,0,1-5.44,1.121c-5.7451,0-9.35-3.2636-9.35-8.7031A8.6717,8.6717,0,0,1,116.7607,171.0537Zm-.1015,4.1817a3.2084,3.2084,0,0,0-3.1963,3.06H119.65C119.5488,176.3574,118.4609,175.2354,116.6592,175.2354Z"/><path class="cls-2" d="M137.0928,178.2607h.7138a2.9771,2.9771,0,0,0-.0683-.5781c-.17-1.3594-1.0537-2.0058-2.55-2.0058a3.213,3.213,0,0,0-3.3653,2.0058c-.0341.1026-4.3173.6123-4.3173-2.3115a3.23,3.23,0,0,1,.8837-2.3115c1.1563-1.3262,3.502-2.0059,7.1729-2.0059,6.0518,0,8.7031,2.4815,8.7031,7.31v9.45c0,.374-1.292.748-2.55.748a3.4045,3.4045,0,0,1-3.1953-1.6992,4.0224,4.0224,0,0,1-.4082-1.1221,6.4254,6.4254,0,0,1-5.6768,2.8555c-3.4,0-5.5761-1.9033-5.5761-4.8271C126.8594,180.1309,130.5312,178.2949,137.0928,178.2607Zm.7138,2.7539-.9179.0342c-2.55.0342-4.0459.6114-4.0459,2.0391,0,1.02.7822,1.6328,1.9384,1.6328a2.7273,2.7273,0,0,0,3.0254-2.584Z"/><path class="cls-2" d="M151.917,184.21c0-1.6319,2.0059-3.4,2.2441-3.23a10.6908,10.6908,0,0,0,6.459,2.5156c2.0742,0,3.0264-.5781,3.0264-1.6992,0-1.36-1.7-1.5987-3.876-2.04-3.6719-.7822-7.3437-2.21-7.3437-6.7656,0-4.5215,3.332-7.207,9.35-7.207a12.3109,12.3109,0,0,1,6.4931,1.4277,3.1893,3.1893,0,0,1,1.7676,2.7539,4.5578,4.5578,0,0,1-2.4131,3.4336,9.0151,9.0151,0,0,0-5.78-2.38c-1.9717,0-2.9229.5782-2.9229,1.7,0,1.2578,1.7334,1.3936,4.0107,1.9033,4.3184.918,7.6153,2.6856,7.6153,6.7315,0,4.7939-3.3311,7.3769-9.8926,7.3769-3.4336,0-5.7451-.68-7.1055-1.6318A3.3776,3.3776,0,0,1,151.917,184.21Z"/><path class="cls-2" d="M182.1416,178.2607h.7139a2.98,2.98,0,0,0-.0674-.5781c-.17-1.3594-1.0537-2.0058-2.55-2.0058a3.2134,3.2134,0,0,0-3.3662,2.0058c-.0332.1026-4.3174.6123-4.3174-2.3115a3.234,3.234,0,0,1,.8838-2.3115c1.1562-1.3262,3.5019-2.0059,7.1738-2.0059,6.0508,0,8.7031,2.4815,8.7031,7.31v9.45c0,.374-1.292.748-2.55.748a3.4045,3.4045,0,0,1-3.1953-1.6992,3.96,3.96,0,0,1-.4082-1.1221,6.4271,6.4271,0,0,1-5.6777,2.8555c-3.3994,0-5.5752-1.9033-5.5752-4.8271C171.9092,180.1309,175.5811,178.2949,182.1416,178.2607Zm.7139,2.7539-.917.0342c-2.55.0342-4.0459.6114-4.0459,2.0391,0,1.02.7822,1.6328,1.9375,1.6328a2.7268,2.7268,0,0,0,3.0254-2.584Z"/><path class="cls-2" d="M192.1045,185.2637V165.07c0-.2383,1.1562-.748,2.4814-.748,1.9043,0,4.0459.9863,4.0459,4.9638v15.9776c0,2.3467-1.2236,3.1621-2.89,3.1621h-.68C193.3281,188.4258,192.1045,187.6777,192.1045,185.2637Z"/><path class="cls-2" d="M203.3584,182.7148v-6.3916h-.4424c-1.666,0-2.55-.7822-2.55-2.21v-.374c0-1.462.8164-2.3457,2.55-2.3457h.4424v-1.6319c0-2.0742,1.0537-3.1279,2.9238-3.1279h.5772c1.7685,0,2.89.7139,2.89,3.1279v1.6319h1.9385c1.7334,0,2.55.748,2.55,2.21v.374c0,1.5293-.8838,2.3457-2.6182,2.3457h-1.9716v5.6436c0,1.1211.4423,1.6992,1.4277,1.6992a2.1725,2.1725,0,0,0,1.8359-1.0537,2.5663,2.5663,0,0,1,1.4278,2.4141,3.182,3.182,0,0,1-.918,2.2773,5.699,5.699,0,0,1-4.1475,1.4277C205.2959,188.7314,203.3584,186.7256,203.3584,182.7148Z"/></g></g></svg>