<svg id="Calque_1" data-name="Calque 1" xmlns="http://www.w3.org/2000/svg" width="300" height="600" viewBox="0 0 300 600" ><defs><style>.cls-1{isolation:isolate;}.cls-2{fill:#fff;}</style></defs><g id="There_s_a_salt_that_elevates_holiday_flavours" data-name="There s a salt that elevates holiday flavours" class="cls-1"><g class="cls-1"><path class="cls-2" d="M71.3848,427.5859h-5.31c-.93,0-1.44-.4795-1.44-1.32v-.1494c0-.84.51-1.29,1.44-1.29H79.8145c.93,0,1.41.45,1.41,1.29v.1494a1.2288,1.2288,0,0,1-1.41,1.32h-5.31v15.3594a1.2456,1.2456,0,0,1-1.38,1.41h-.42c-.87,0-1.32-.4805-1.32-1.41Z"/><path class="cls-2" d="M83.6548,423.9561a1.4744,1.4744,0,0,1,1.08-.33c.9,0,1.89.48,1.89,2.55v5.91a5.4013,5.4013,0,0,1,4.77-2.64c3.81,0,5.58,2.64,5.58,6.2392v7.26c0,1.08-.57,1.41-1.32,1.41h-.33c-.78,0-1.32-.33-1.32-1.41v-6.93c0-2.49-1.26-3.96-3.33-3.96-2.46,0-4.05,1.62-4.05,4.23v6.6592c0,1.08-.57,1.41-1.32,1.41h-.33c-.78,0-1.32-.33-1.32-1.41Z"/><path class="cls-2" d="M106.9941,429.4463c4.1695,0,6.93,2.9394,6.93,7.26v.2392c0,.63-.21.87-.9.87h-10.65a5.1419,5.1419,0,0,0,9.45,2.07c.06-.06,1.56.21,1.56,1.47s-2.22,3.2695-6.15,3.2695c-4.56,0-7.62-3.0293-7.62-7.5293A7.311,7.311,0,0,1,106.9941,429.4463Zm4.05,6.3594c-.15-2.49-1.68-4.1094-4.08-4.1094a4.601,4.601,0,0,0-4.56,4.1094Z"/><path class="cls-2" d="M116.6846,429.9863a1.47,1.47,0,0,1,1.08-.33c.87,0,1.83.4795,1.86,2.52a3.6525,3.6525,0,0,1,3.66-2.7295c1.5,0,2.37.72,2.37,1.92a1.4756,1.4756,0,0,1-.9,1.5293,2.7966,2.7966,0,0,0-1.83-.63c-2.34,0-3.27,2.28-3.27,5.61v5.0693c0,1.08-.57,1.41-1.32,1.41h-.33c-.78,0-1.32-.33-1.32-1.41Z"/><path class="cls-2" d="M134.1738,429.4463c4.1695,0,6.93,2.9394,6.93,7.26v.2392c0,.63-.21.87-.9.87h-10.65a5.1419,5.1419,0,0,0,9.45,2.07c.06-.06,1.56.21,1.56,1.47s-2.22,3.2695-6.15,3.2695c-4.56,0-7.62-3.0293-7.62-7.5293A7.3111,7.3111,0,0,1,134.1738,429.4463Zm4.05,6.3594c-.15-2.49-1.68-4.1094-4.08-4.1094a4.601,4.601,0,0,0-4.56,4.1094Z"/><path class="cls-2" d="M142.7539,430.9463l1.59-5.1006c.3-.96.51-1.4092,1.56-1.4092h.27c.75,0,1.26.4795,1.26,1.4092v.12a3.0962,3.0962,0,0,1-.69,1.83l-2.49,3.81C143.834,432.1455,142.4844,431.8154,142.7539,430.9463Z"/><path class="cls-2" d="M150.4634,440.1855a5.94,5.94,0,0,0,4.86,2.16c2.04,0,3.18-.75,3.18-1.95,0-1.47-1.35-1.74-3.72-2.25-2.13-.45-5.0693-1.1094-5.0693-4.17,0-2.6992,2.249-4.5293,5.76-4.5293,3.6895,0,5.5489,1.56,5.5489,2.9092a1.5759,1.5759,0,0,1-1.1993,1.38,5.22,5.22,0,0,0-4.23-2.0391c-2.0391,0-3.1192.7793-3.1192,1.9795,0,1.32,1.26,1.62,3.6,2.13,2.22.48,5.31,1.14,5.31,4.26,0,2.76-2.28,4.53-6,4.53-4.0195,0-6.0893-1.6807-6.0893-3.0605A1.5177,1.5177,0,0,1,150.4634,440.1855Z"/><path class="cls-2" d="M178.2129,435.5654h.39v-.3c0-2.1894-1.26-3.39-3.57-3.39a4.3592,4.3592,0,0,0-4.14,2.46c0,.03-1.83,0-1.83-1.44,0-1.38,2.1006-3.4492,6.18-3.4492s6.3,2.1,6.3,5.76v8.85c0,.1494-.54.33-1.0791.33-1.0508,0-1.8008-.57-1.83-2.31a6.2379,6.2379,0,0,1-5.19,2.49c-3.09,0-4.92-1.65-4.92-4.11C168.5225,437.126,171.7031,435.6855,178.2129,435.5654Zm-4.05,6.87c2.5791,0,4.4394-1.62,4.4394-3.9v-1.1094l-.8095.03c-4.2.1494-6.36.93-6.36,2.88C171.4326,441.625,172.4531,442.4355,174.1631,442.4355Z"/><path class="cls-2" d="M190.2725,440.1855a5.9418,5.9418,0,0,0,4.86,2.16c2.04,0,3.18-.75,3.18-1.95,0-1.47-1.35-1.74-3.72-2.25-2.13-.45-5.0694-1.1094-5.0694-4.17,0-2.6992,2.2491-4.5293,5.76-4.5293,3.69,0,5.5488,1.56,5.5488,2.9092a1.5759,1.5759,0,0,1-1.1992,1.38,5.2208,5.2208,0,0,0-4.2305-2.0391c-2.039,0-3.1191.7793-3.1191,1.9795,0,1.32,1.26,1.62,3.6,2.13,2.22.48,5.31,1.14,5.31,4.26,0,2.76-2.28,4.53-6,4.53-4.0195,0-6.09-1.6807-6.09-3.0605A1.5178,1.5178,0,0,1,190.2725,440.1855Z"/><path class="cls-2" d="M212.9219,435.5654h.39v-.3c0-2.1894-1.26-3.39-3.5693-3.39a4.3585,4.3585,0,0,0-4.14,2.46c0,.03-1.83,0-1.83-1.44,0-1.38,2.1-3.4492,6.18-3.4492s6.3,2.1,6.3,5.76v8.85c0,.1494-.54.33-1.08.33-1.05,0-1.8-.57-1.83-2.31a6.2362,6.2362,0,0,1-5.19,2.49c-3.09,0-4.92-1.65-4.92-4.11C203.2324,437.126,206.4121,435.6855,212.9219,435.5654Zm-4.05,6.87c2.58,0,4.4394-1.62,4.4394-3.9v-1.1094l-.8095.03c-4.2.1494-6.3594.93-6.3594,2.88C206.1426,441.625,207.1621,442.4355,208.8721,442.4355Z"/><path class="cls-2" d="M219.8828,423.9561a1.5426,1.5426,0,0,1,1.08-.33c.93,0,1.89.48,1.89,2.55v16.7695c0,1.08-.54,1.41-1.32,1.41h-.3c-.78,0-1.35-.33-1.35-1.41Z"/><path class="cls-2" d="M227.7422,432.2354h-1.05c-.9307,0-1.29-.39-1.29-1.1094v-.21c0-.72.3594-1.11,1.29-1.11h1.05v-2.22c0-1.0195.51-1.41,1.3193-1.41h.3008c.7793,0,1.2891.3,1.2891,1.41v2.22h3.27c.93,0,1.26.36,1.26,1.08v.21c0,.75-.36,1.14-1.29,1.14h-3.27v7.29c0,1.8.51,2.67,1.92,2.67a2.4444,2.4444,0,0,0,2.04-1.0195c.09-.09.84.33.84,1.26,0,1.1094-1.2305,2.19-3.36,2.19-2.97,0-4.3193-1.6494-4.3193-4.7695Z"/></g><g class="cls-1"><path class="cls-2" d="M59.9849,469.3457v-5.64h-.39c-1.47,0-2.25-.69-2.25-1.95v-.33c0-1.29.72-2.0694,2.25-2.0694h.39v-1.44c0-1.83.93-2.76,2.58-2.76h.51c1.56,0,2.55.63,2.55,2.76v1.44h1.71c1.53,0,2.25.6592,2.25,1.9493v.33c0,1.35-.78,2.07-2.31,2.07h-1.74v4.9794c0,.99.39,1.5,1.26,1.5a1.9173,1.9173,0,0,0,1.62-.93,2.2653,2.2653,0,0,1,1.26,2.13,2.8131,2.8131,0,0,1-.81,2.01,5.0283,5.0283,0,0,1-3.66,1.26C61.6948,474.6553,59.9849,472.8857,59.9849,469.3457Z"/><path class="cls-2" d="M87.0742,465.1455v6.45c0,2.0693-1.05,2.79-2.52,2.79h-.6c-1.56,0-2.64-.66-2.64-2.79v-5.58c0-1.4394-.69-2.28-1.86-2.28a2.1127,2.1127,0,0,0-2.25,2.4v5.46c0,2.1-1.08,2.79-2.55,2.79h-.6c-1.53,0-2.61-.66-2.61-2.79V453.7764c0-.21,1.05-.66,2.22-.66,1.65,0,3.54.87,3.54,4.38v4.26a4.9691,4.9691,0,0,1,4.62-2.7C85.6641,459.0557,87.0742,461.9355,87.0742,465.1455Z"/><path class="cls-2" d="M97.9048,465.416h.63a2.624,2.624,0,0,0-.06-.5107c-.15-1.1992-.93-1.77-2.25-1.77a2.835,2.835,0,0,0-2.97,1.77c-.03.0908-3.81.54-3.81-2.0391a2.8511,2.8511,0,0,1,.78-2.04c1.02-1.17,3.09-1.77,6.33-1.77,5.34,0,7.68,2.19,7.68,6.45v8.34c0,.33-1.14.6592-2.25.6592a3.0049,3.0049,0,0,1-2.82-1.499,3.5565,3.5565,0,0,1-.36-.99,5.67,5.67,0,0,1-5.01,2.52c-3,0-4.92-1.68-4.92-4.26C88.875,467.0654,92.1147,465.4453,97.9048,465.416Zm.63,2.43-.81.03c-2.25.0293-3.57.54-3.57,1.8,0,.8994.69,1.4394,1.71,1.4394a2.4058,2.4058,0,0,0,2.67-2.2793Z"/><path class="cls-2" d="M107.8345,469.3457v-5.64h-.39c-1.47,0-2.2495-.69-2.2495-1.95v-.33c0-1.29.72-2.0694,2.2495-2.0694h.39v-1.44c0-1.83.93-2.76,2.58-2.76h.51c1.56,0,2.55.63,2.55,2.76v1.44h1.71c1.53,0,2.25.6592,2.25,1.9493v.33c0,1.35-.78,2.07-2.31,2.07h-1.74v4.9794c0,.99.39,1.5,1.26,1.5a1.9173,1.9173,0,0,0,1.62-.93,2.2653,2.2653,0,0,1,1.26,2.13,2.8134,2.8134,0,0,1-.8095,2.01,5.0286,5.0286,0,0,1-3.66,1.26C109.5444,474.6553,107.8345,472.8857,107.8345,469.3457Z"/><path class="cls-2" d="M131.6841,459.0557c4.53,0,7.68,3.12,7.68,7.41v.27c-.03.87-.27,1.38-1.17,1.38h-9.4794a1.6873,1.6873,0,0,0,.12.42,3.2851,3.2851,0,0,0,3.4194,2.2207,3.7593,3.7593,0,0,0,3.54-1.8c.03-.0606,2.73.0293,2.73,2.22a2.9341,2.9341,0,0,1-1.68,2.4892,9.7955,9.7955,0,0,1-4.8.99c-5.07,0-8.25-2.88-8.25-7.68A7.6519,7.6519,0,0,1,131.6841,459.0557Zm-.09,3.69a2.8306,2.8306,0,0,0-2.82,2.6992h5.4595A2.5185,2.5185,0,0,0,131.5942,462.7461Z"/><path class="cls-2" d="M141.3442,471.5957V453.7764c0-.21,1.02-.66,2.19-.66,1.68,0,3.57.87,3.57,4.38v14.1c0,2.0693-1.08,2.79-2.55,2.79h-.6C142.4243,474.3857,141.3442,473.7256,141.3442,471.5957Z"/><path class="cls-2" d="M157.0332,459.0557c4.53,0,7.68,3.12,7.68,7.41v.27c-.0293.87-.2695,1.38-1.17,1.38h-9.48a1.7353,1.7353,0,0,0,.12.42,3.2858,3.2858,0,0,0,3.42,2.2207,3.76,3.76,0,0,0,3.54-1.8c.03-.0606,2.7294.0293,2.7294,2.22a2.9335,2.9335,0,0,1-1.68,2.4892,9.7978,9.7978,0,0,1-4.8.99c-5.07,0-8.25-2.88-8.25-7.68A7.6516,7.6516,0,0,1,157.0332,459.0557Zm-.09,3.69a2.83,2.83,0,0,0-2.8194,2.6992h5.459A2.5185,2.5185,0,0,0,156.9434,462.7461Z"/><path class="cls-2" d="M165.5234,460.8262c-.09-.3,1.5606-1.6807,3.21-1.6807,1.2305,0,2.43.6006,3.03,2.6406l2.1,6.72,2.19-6.72c.63-2.04,1.8-2.6406,2.94-2.6406,1.68,0,3.2695,1.3809,3.1494,1.6807l-5.22,12.27c-.48,1.08-2.1,1.3193-3.0293,1.3193-.96,0-2.61-.21-3.09-1.3193Z"/><path class="cls-2" d="M191.5928,465.416h.63a2.6254,2.6254,0,0,0-.06-.5107c-.15-1.1992-.93-1.77-2.25-1.77a2.8341,2.8341,0,0,0-2.97,1.77c-.03.0908-3.81.54-3.81-2.0391a2.85,2.85,0,0,1,.7793-2.04c1.0205-1.17,3.09-1.77,6.33-1.77,5.34,0,7.68,2.19,7.68,6.45v8.34c0,.33-1.14.6592-2.25.6592a3.006,3.006,0,0,1-2.82-1.499,3.5587,3.5587,0,0,1-.3593-.99,5.671,5.671,0,0,1-5.01,2.52c-3,0-4.92-1.68-4.92-4.26C182.5635,467.0654,185.8027,465.4453,191.5928,465.416Zm.63,2.43-.81.03c-2.25.0293-3.57.54-3.57,1.8,0,.8994.69,1.4394,1.71,1.4394a2.4053,2.4053,0,0,0,2.67-2.2793Z"/><path class="cls-2" d="M201.5225,469.3457v-5.64h-.39c-1.47,0-2.25-.69-2.25-1.95v-.33c0-1.29.72-2.0694,2.25-2.0694h.39v-1.44c0-1.83.9306-2.76,2.58-2.76h.51c1.5606,0,2.55.63,2.55,2.76v1.44h1.7109c1.5293,0,2.25.6592,2.25,1.9493v.33c0,1.35-.78,2.07-2.31,2.07h-1.74v4.9794c0,.99.3906,1.5,1.2607,1.5a1.9177,1.9177,0,0,0,1.62-.93,2.2651,2.2651,0,0,1,1.26,2.13,2.812,2.812,0,0,1-.8106,2.01,5.0283,5.0283,0,0,1-3.66,1.26C203.2324,474.6553,201.5225,472.8857,201.5225,469.3457Z"/><path class="cls-2" d="M219.8535,459.0557c4.5293,0,7.68,3.12,7.68,7.41v.27c-.03.87-.27,1.38-1.17,1.38h-9.4805a1.74,1.74,0,0,0,.12.42,3.2859,3.2859,0,0,0,3.42,2.2207,3.7588,3.7588,0,0,0,3.54-1.8c.03-.0606,2.73.0293,2.73,2.22a2.9334,2.9334,0,0,1-1.68,2.4892,9.7924,9.7924,0,0,1-4.8.99c-5.0693,0-8.249-2.88-8.249-7.68A7.6519,7.6519,0,0,1,219.8535,459.0557Zm-.0908,3.69a2.83,2.83,0,0,0-2.8193,2.6992h5.46A2.5192,2.5192,0,0,0,219.7627,462.7461Z"/><path class="cls-2" d="M228.6143,471.1758a2.3449,2.3449,0,0,1,1.38-2.1006,7.4011,7.4011,0,0,0,4.8,1.74c1.17,0,1.8-.33,1.8-.93,0-.72-.9307-.9-2.37-1.23-1.86-.39-5.25-1.02-5.25-4.6494,0-3,2.4-4.92,6.57-4.92,3.18,0,5.1592.72,5.9092,2.01a2.46,2.46,0,0,1,.39,1.38,2.7145,2.7145,0,0,1-1.5293,2.25,6.78,6.78,0,0,0-4.35-1.89c-1.11,0-1.74.36-1.74.99,0,.6894,1.02.81,2.55,1.17,1.89.42,5.43,1.0791,5.43,4.6191,0,3.12-2.3994,4.95-6.96,4.95a10.561,10.561,0,0,1-5.1592-.99A2.5916,2.5916,0,0,1,228.6143,471.1758Z"/></g><g class="cls-1"><path class="cls-2" d="M52.9644,495.1455v6.45c0,2.0693-1.05,2.79-2.52,2.79h-.6c-1.56,0-2.64-.66-2.64-2.79v-5.58c0-1.4394-.69-2.28-1.86-2.28a2.1127,2.1127,0,0,0-2.25,2.4v5.46c0,2.1-1.08,2.79-2.55,2.79h-.6c-1.53,0-2.61-.66-2.61-2.79V483.7764c0-.21,1.05-.66,2.22-.66,1.65,0,3.54.87,3.54,4.38v4.26a4.9692,4.9692,0,0,1,4.62-2.7C51.5542,489.0557,52.9644,491.9355,52.9644,495.1455Z"/><path class="cls-2" d="M62.9546,489.0557c4.86,0,8.04,3.12,8.04,7.8,0,4.71-3.21,7.8-8.13,7.8-4.89,0-8.04-3.06-8.04-7.83C54.8247,492.1758,58.0645,489.0557,62.9546,489.0557Zm-.03,4.38a3.4107,3.4107,0,0,0,0,6.81,3.4127,3.4127,0,0,0,0-6.81Z"/><path class="cls-2" d="M73.0645,501.5957V483.7764c0-.21,1.02-.66,2.19-.66,1.68,0,3.57.87,3.57,4.38v14.1c0,2.0693-1.08,2.79-2.55,2.79h-.6C74.1445,504.3857,73.0645,503.7256,73.0645,501.5957Z"/><path class="cls-2" d="M84.374,482.2461c1.89,0,3.09,1.05,3.09,2.76,0,1.65-1.14,2.73-3.06,2.73-1.86,0-3.09-1.05-3.09-2.73S82.4844,482.2461,84.374,482.2461Zm-2.88,9.72c0-2.04,1.11-2.76,2.58-2.76h.6c1.56,0,2.58.63,2.58,2.76v9.63c0,2.0693-1.05,2.79-2.52,2.79h-.6c-1.56,0-2.64-.66-2.64-2.79Z"/><path class="cls-2" d="M89.2642,496.8252c0-4.7695,2.67-7.7695,6.78-7.7695a5.1715,5.1715,0,0,1,4.29,2.04v-7.3193c0-.21,1.05-.66,2.22-.66,1.65,0,3.54.87,3.54,4.38v14.1c0,2.0693-1.05,2.79-2.55,2.79h-.57a2.1764,2.1764,0,0,1-2.43-1.59,7.442,7.442,0,0,1-.15-.87,4.7122,4.7122,0,0,1-4.38,2.73C91.9639,504.6553,89.2642,501.4453,89.2642,496.8252Zm11.0693-1.6494a2.8108,2.8108,0,0,0-2.64-1.65c-1.8,0-2.97,1.2607-2.97,3.33,0,1.98,1.17,3.33,2.88,3.33a2.5207,2.5207,0,0,0,2.73-2.61Z"/><path class="cls-2" d="M117.0737,495.416h.63a2.632,2.632,0,0,0-.06-.5107c-.15-1.1992-.93-1.77-2.25-1.77a2.8352,2.8352,0,0,0-2.97,1.77c-.03.0908-3.8095.54-3.8095-2.0391a2.851,2.851,0,0,1,.78-2.04c1.02-1.17,3.09-1.77,6.33-1.77,5.34,0,7.68,2.19,7.68,6.45v8.34c0,.33-1.14.6592-2.25.6592a3.005,3.005,0,0,1-2.82-1.499,3.5628,3.5628,0,0,1-.36-.99,5.67,5.67,0,0,1-5.01,2.52c-3,0-4.92-1.68-4.92-4.26C108.0439,497.0654,111.2837,495.4453,117.0737,495.416Zm.63,2.43-.81.03c-2.25.0293-3.57.54-3.57,1.8,0,.8994.69,1.4394,1.71,1.4394a2.4057,2.4057,0,0,0,2.67-2.2793Z"/><path class="cls-2" d="M128.5034,508.2852l2.43-5.13a1.8754,1.8754,0,0,1-1.47-1.08l-4.92-11.249c-.12-.3,1.53-1.65,3.24-1.6807,1.17,0,2.37.6006,2.97,2.6406l2.22,6.51,2.07-6.51c.6-2.01,1.8-2.6406,2.97-2.6406,1.62,0,3.27,1.3506,3.12,1.6807l-6.48,16.4687c-.75,1.95-1.83,2.58-3.06,2.58C129.9131,509.875,128.353,508.585,128.5034,508.2852Z"/><path class="cls-2" d="M148.6636,493.7061h-.57q-2.3394,0-2.34-2.07v-.33c0-1.26.78-1.9493,2.34-1.9493h.57v-.4209c0-4.59,2.4-5.97,5.6694-5.97a5.1785,5.1785,0,0,1,3.4805.99,2.3349,2.3349,0,0,1,.78,1.74,2.9764,2.9764,0,0,1-1.11,2.25,2.7433,2.7433,0,0,0-1.83-.7207c-.96,0-1.4394.45-1.4394,1.65v.48h1.23c1.56,0,2.31.72,2.31,2.0694v.33c0,1.26-.75,1.95-2.31,1.95h-1.02v7.89c0,2.13-1.02,2.79-2.58,2.79h-.57c-1.5,0-2.61-.7207-2.61-2.79Zm10.86,7.89V483.7764c0-.21,1.02-.66,2.1895-.66,1.6807,0,3.57.87,3.57,4.38v14.1c0,2.0693-1.08,2.79-2.55,2.79h-.6006C160.6035,504.3857,159.5234,503.7256,159.5234,501.5957Z"/><path class="cls-2" d="M176.293,495.416h.63a2.6254,2.6254,0,0,0-.06-.5107c-.15-1.1992-.93-1.77-2.25-1.77a2.8341,2.8341,0,0,0-2.97,1.77c-.03.0908-3.8106.54-3.8106-2.0391a2.8511,2.8511,0,0,1,.78-2.04c1.02-1.17,3.09-1.77,6.33-1.77,5.34,0,7.68,2.19,7.68,6.45v8.34c0,.33-1.14.6592-2.25.6592a3.0058,3.0058,0,0,1-2.82-1.499,3.5587,3.5587,0,0,1-.3593-.99,5.6712,5.6712,0,0,1-5.01,2.52c-3,0-4.92-1.68-4.92-4.26C167.2637,497.0654,170.5029,495.4453,176.293,495.416Zm.63,2.43-.81.03c-2.25.0293-3.57.54-3.57,1.8,0,.8994.69,1.4394,1.71,1.4394a2.4053,2.4053,0,0,0,2.67-2.2793Z"/><path class="cls-2" d="M183.5537,490.8262c-.09-.3,1.56-1.6807,3.209-1.6807,1.2305,0,2.4307.6006,3.03,2.6406l2.1,6.72,2.19-6.72c.63-2.04,1.8-2.6406,2.94-2.6406,1.6806,0,3.27,1.3809,3.15,1.6807l-5.22,12.27c-.48,1.08-2.1006,1.3193-3.03,1.3193-.96,0-2.6094-.21-3.09-1.3193Z"/><path class="cls-2" d="M208.7217,489.0557c4.86,0,8.04,3.12,8.04,7.8,0,4.71-3.21,7.8-8.13,7.8-4.89,0-8.039-3.06-8.039-7.83C200.5928,492.1758,203.832,489.0557,208.7217,489.0557Zm-.0293,4.38a3.4107,3.4107,0,0,0,0,6.81,3.4128,3.4128,0,0,0,0-6.81Z"/><path class="cls-2" d="M234.252,491.9658v11.76a3.2338,3.2338,0,0,1-2.2208.66,3.1351,3.1351,0,0,1-3.09-1.92,3.22,3.22,0,0,1-.18-.6308,5.4674,5.4674,0,0,1-4.89,2.79c-3.84,0-5.25-2.76-5.25-5.85v-6.81c0-2.04,1.05-2.76,2.52-2.76h.6006c1.56,0,2.64.63,2.64,2.76v5.8194c0,1.3505.6905,2.16,1.92,2.16a2.577,2.577,0,0,0,2.19-1.17v-6.81c0-2.07,1.05-2.76,2.55-2.76h.6C233.1719,489.2061,234.252,489.8359,234.252,491.9658Z"/><path class="cls-2" d="M249.1318,492.1455a3,3,0,0,1-1.92,3.03,3.1407,3.1407,0,0,0-2.04-.78c-1.71,0-2.52,1.23-2.52,3.66v3.54c0,2.1-1.08,2.79-2.55,2.79h-.6c-1.56,0-2.6094-.66-2.6094-2.79v-11.73c0-.21,1.02-.66,2.1894-.66a3.0678,3.0678,0,0,1,2.97,1.7695,3.3464,3.3464,0,0,1,.33.9306,3.6654,3.6654,0,0,1,3.6-2.8505A2.9147,2.9147,0,0,1,249.1318,492.1455Z"/><path class="cls-2" d="M249.7324,501.1758a2.3449,2.3449,0,0,1,1.38-2.1006,7.4006,7.4006,0,0,0,4.8,1.74c1.17,0,1.8-.33,1.8-.93,0-.72-.9307-.9-2.37-1.23-1.86-.39-5.25-1.02-5.25-4.6494,0-3,2.4-4.92,6.57-4.92,3.18,0,5.1592.72,5.9092,2.01a2.46,2.46,0,0,1,.39,1.38,2.7144,2.7144,0,0,1-1.5293,2.25,6.7792,6.7792,0,0,0-4.35-1.89c-1.11,0-1.74.36-1.74.99,0,.6894,1.02.81,2.55,1.17,1.89.42,5.43,1.0791,5.43,4.6191,0,3.12-2.3994,4.95-6.96,4.95a10.5612,10.5612,0,0,1-5.1592-.99A2.5916,2.5916,0,0,1,249.7324,501.1758Z"/></g></g></svg>