<svg xmlns="http://www.w3.org/2000/svg" xmlns:xlink="http://www.w3.org/1999/xlink" width="455.193" height="229.915" viewBox="0 0 455.193 229.915"><defs><style>.a{isolation:isolate;}.b{mix-blend-mode:multiply;}.c{fill:url(#a);}.d{fill:#0098d7;}.e{fill:#fff;}</style><linearGradient id="a" x1="214.345" y1="0.322" x2="214.345" y2="209.235" gradientUnits="userSpaceOnUse"><stop offset="0.35" stop-color="#cee1ec"/><stop offset="0.72" stop-color="#deebf3"/><stop offset="0.86" stop-color="#a8cce1"/><stop offset="0.95" stop-color="#deebf3"/></linearGradient></defs><g class="a"><g class="b"><path class="c" d="M317.336,0V45.582H274.222V0H153.9V45.582H110.781V0H0V191.9s48.6,19.216,127.5,19.216c71.6,0,116.448-17.147,162.32-22.8,88.111-10.86,138.871,2.839,138.871,2.839V0Z"/></g><path class="d" d="M138.613,197.649c40.677-2.794,73.308-8.34,122.584-16.944,91.256-15.934,141.592.168,161.621,5.677V5.873h-99.61V51.455H268.349V5.873H159.766V51.455H104.908V5.873H5.873V190.259C43.562,198.741,97.708,200.457,138.613,197.649Z"/><path class="e" d="M96.26,153.994h-11.2L70.55,117.257,56.157,153.994h-11.2L25.034,95.826H38.565l12.426,36.738L65.137,95.826H76.084l14.148,36.856L102.9,95.826h13.531Z"/><path class="e" d="M129.1,83.227a7.19,7.19,0,1,1,7.5-7.183A7.3,7.3,0,0,1,129.1,83.227Zm-6.4,70.767V95.826h12.669v58.168Z"/><path class="e" d="M181.138,153.994V121.025c0-4.121-.369-7.772-2.214-10.245-1.6-2.237-5.166-4-10.455-4-4.922,0-8.489,2-10.335,4.827a12.012,12.012,0,0,0-1.474,3.533v38.857H144.112V96.768H156.66v1.766a28.274,28.274,0,0,1,11.809-2.59c8.733,0,16.606,2.355,21.035,8.477,3.813,5.3,4.182,11.658,4.182,16.6v32.969Z"/><path class="e" d="M241.048,155.643l-1.231-3.886a26.913,26.913,0,0,1-13.408,3.414c-9.1-.118-16.977-4-21.282-10.95-3.689-6.241-4.058-13.894-4.058-19.193,0-5.77.369-13.071,4.058-19.075C209.432,98.77,217.305,95,226.409,95a28.228,28.228,0,0,1,11.81,2.472V71.805h12.669v73.358c0,2.788,2.512,7.914,2.512,7.914Zm-4.306-43.8c-1.845-2.944-5.413-4.946-10.333-4.946s-8.489,2-10.333,4.946c-1.969,3.3-2.338,8.124-2.338,13.188-.124,4.71.245,9.773,2.338,13.188,1.844,2.944,5.411,4.945,10.333,4.945s8.488-1.884,10.333-4.945a13.876,13.876,0,0,0,1.477-5.181V117.021A13.876,13.876,0,0,0,236.742,111.84Z"/><path class="e" d="M281.887,155.053c-12.055,0-21.28-4.827-25.093-16.249l12.424-2.236c2.46,6,6.273,6.946,12.669,6.946,4.184,0,10.826-1.53,10.826-6.711,0-11.775-34.2-3.415-34.2-24.61,0-11.54,11.071-16.367,21.649-16.367,9.35,0,17.716,2.944,22.39,11.186l-11.318,5.3c-2.582-4.239-6.273-4.828-11.072-4.828-4.92,0-9.1.824-9.1,4.71,0,8.007,34.2,2,34.2,24.61C305.261,148.931,293.206,155.053,281.887,155.053Z"/><path class="e" d="M358.278,144.692c-4.43,6.711-12.669,10.361-22.019,10.361-9.228.118-17.715-3.65-22.142-10.361-3.939-6.123-4.306-14.13-4.306-19.193,0-5.535.491-13.306,4.306-19.193,4.427-6.83,12.793-10.48,22.142-10.48s17.468,3.65,22.019,10.48c3.813,5.887,4.305,13.541,4.305,19.075C362.583,130.562,362.214,138.569,358.278,144.692Zm-10.826-32.381c-1.843-2.943-5.782-4.828-11.317-4.828-5.413,0-9.349,1.885-11.195,4.828-2.091,3.179-2.46,8.242-2.46,13.188,0,4.592.369,9.89,2.46,13.07,1.97,2.944,5.782,4.945,11.195,4.945,5.535,0,9.474-2,11.317-4.945,2.091-3.18,2.46-8.6,2.46-13.07C349.912,120.553,349.543,115.372,347.452,112.311Z"/><path class="e" d="M401.58,109.721c-3.691-2-5.782-2.356-8.121-2.356-5.044,0-11.44,2.827-11.44,8.36v38.269h-12.3V96.415h12.3v1.766a28.314,28.314,0,0,1,11.44-2.355,32.269,32.269,0,0,1,13.655,3.062Z"/><path class="e" d="M349.16,229.623V205.707l-5.033,4.427v-3.1l5.033-4.352h2.725v26.944Z"/><path class="e" d="M363.114,229.85c-4.466,0-7.947-3.1-7.947-7.644a7.333,7.333,0,0,1,4.049-6.547,6.584,6.584,0,0,1-3.519-5.979,7.419,7.419,0,0,1,14.834,0,6.551,6.551,0,0,1-3.482,5.979,7.3,7.3,0,0,1,4.011,6.547C371.06,226.747,367.579,229.85,363.114,229.85Zm0-12.942a5.26,5.26,0,1,0,5.222,5.26A5.147,5.147,0,0,0,363.114,216.908Zm0-12.034a4.592,4.592,0,0,0-4.693,4.843,4.694,4.694,0,1,0,9.385,0A4.592,4.592,0,0,0,363.114,204.874Z"/><path class="e" d="M385.933,216.264l-6.622,13.359h-2.839l6.055-12.11a6.969,6.969,0,0,1-2.875.568c-4.2,0-6.963-3.217-6.963-7.644,0-4.579,2.875-7.985,7.454-7.985s7.493,3.1,7.493,7.758A13.294,13.294,0,0,1,385.933,216.264Zm-5.79-11.39c-2.876,0-4.729,2.157-4.729,5.449,0,2.99,1.627,5.449,4.729,5.449,2.876,0,4.769-2.119,4.769-5.449C384.912,207.031,383.019,204.874,380.143,204.874Z"/><path class="e" d="M396.686,229.887c-4.238,0-7.681-2.232-7.908-7.114H391.5c.226,3.368,2.61,4.692,5.183,4.692a4.933,4.933,0,0,0,5.185-5.221c0-3.255-1.627-5.223-5.3-5.223h-.567v-2.384h.567c3.292,0,4.806-1.854,4.806-4.882,0-3.215-2.081-4.918-4.693-4.918a4.569,4.569,0,0,0-4.843,4.5h-2.725a7.165,7.165,0,0,1,7.568-6.924c4.39,0,7.417,2.914,7.417,7.3a6.042,6.042,0,0,1-3.632,5.98c2.724,1.021,4.125,3.217,4.125,6.585C404.6,227.239,401.076,229.887,396.686,229.887Z"/><path class="e" d="M289.519,210.522a2.185,2.185,0,0,0,.412,1.108,2.4,2.4,0,0,0,1.925.667,4.161,4.161,0,0,0,1.326-.175,1.26,1.26,0,0,0,.966-1.255.92.92,0,0,0-.474-.829,5.089,5.089,0,0,0-1.5-.506l-1.17-.257a7.315,7.315,0,0,1-2.372-.829,2.637,2.637,0,0,1-1.093-2.341,3.107,3.107,0,0,1,1.069-2.413,4.561,4.561,0,0,1,3.142-.962,4.823,4.823,0,0,1,2.952.906,3.224,3.224,0,0,1,1.281,2.631h-2.171a1.549,1.549,0,0,0-.873-1.387,2.985,2.985,0,0,0-1.346-.271,2.562,2.562,0,0,0-1.429.352,1.114,1.114,0,0,0-.534.983.924.924,0,0,0,.527.865,6.463,6.463,0,0,0,1.436.448l1.9.448a4.809,4.809,0,0,1,1.87.785,2.647,2.647,0,0,1,.967,2.208,3.105,3.105,0,0,1-1.146,2.462,4.838,4.838,0,0,1-3.236.978,5.289,5.289,0,0,1-3.359-.964,3.191,3.191,0,0,1-1.224-2.652Z"/><path class="e" d="M300.724,213.86h-2.245V203.047h2.245Z"/><path class="e" d="M303.552,203.047h2.369l4.293,7.54v-7.54h2.106V213.86h-2.26l-4.4-7.673v7.673h-2.106Z"/><path class="e" d="M316.224,204.175a5.043,5.043,0,0,1,7.273.455,3.9,3.9,0,0,1,.74,2.018h-2.26a3.066,3.066,0,0,0-.554-1.174,2.228,2.228,0,0,0-1.789-.7,2.205,2.205,0,0,0-1.905.994,4.863,4.863,0,0,0-.7,2.814,4.263,4.263,0,0,0,.735,2.725,2.3,2.3,0,0,0,1.869.907,2.116,2.116,0,0,0,1.773-.779,3.392,3.392,0,0,0,.56-1.254h2.244a4.868,4.868,0,0,1-1.484,2.876,4.317,4.317,0,0,1-3.059,1.108,4.585,4.585,0,0,1-3.628-1.5,7.092,7.092,0,0,1,.181-8.489Z"/><path class="e" d="M334.79,204.961h-5.723v2.3h5.253v1.878h-5.253v2.781h5.986v1.944h-8.194V203.047h7.931Z"/><path class="e" d="M283.454,219.057a3.575,3.575,0,0,1,1.843,1.372,4.808,4.808,0,0,1,.771,1.746,8.382,8.382,0,0,1,.206,1.79,7.181,7.181,0,0,1-.867,3.654,3.911,3.911,0,0,1-3.627,2.017h-4.662V218.823h4.662A5.727,5.727,0,0,1,283.454,219.057Zm-4.143,1.644v7.057H281.4a2.252,2.252,0,0,0,2.233-1.577,5.537,5.537,0,0,0,.346-2.061,5.083,5.083,0,0,0-.517-2.535,2.191,2.191,0,0,0-2.062-.884Z"/><path class="e" d="M296.716,220.737h-5.722v2.3h5.253v1.878h-5.253v2.78h5.986v1.944h-8.194V218.823h7.93Z"/><path class="e" d="M306.753,224.956a4.127,4.127,0,0,1-2.712.792h-2.252v3.888h-2.244V218.823h4.642a3.749,3.749,0,0,1,2.561.836,3.267,3.267,0,0,1,.954,2.59A3.36,3.36,0,0,1,306.753,224.956Zm-1.725-3.9a1.823,1.823,0,0,0-1.2-.359h-2.037v3.183h2.037a1.727,1.727,0,0,0,1.2-.388,1.588,1.588,0,0,0,.43-1.233A1.491,1.491,0,0,0,305.028,221.06Z"/><path class="e" d="M310.265,218.823h2.3v6.64a3.746,3.746,0,0,0,.264,1.628,2.195,2.195,0,0,0,3.559,0,3.746,3.746,0,0,0,.264-1.628v-6.64h2.3v6.646a5.58,5.58,0,0,1-.534,2.685q-1,1.761-3.8,1.761t-3.809-1.761a5.58,5.58,0,0,1-.534-2.685Z"/><path class="e" d="M323.928,229.636h-2.245V218.823h2.245Z"/><path class="e" d="M328.421,226.3a2.187,2.187,0,0,0,.413,1.108,2.4,2.4,0,0,0,1.924.668,4.164,4.164,0,0,0,1.327-.176,1.26,1.26,0,0,0,.965-1.255.922.922,0,0,0-.473-.829,5.17,5.17,0,0,0-1.5-.506l-1.171-.257a7.274,7.274,0,0,1-2.371-.829,2.635,2.635,0,0,1-1.094-2.341,3.109,3.109,0,0,1,1.069-2.413,4.566,4.566,0,0,1,3.142-.962,4.815,4.815,0,0,1,2.952.907,3.219,3.219,0,0,1,1.281,2.631h-2.171a1.547,1.547,0,0,0-.873-1.387,2.97,2.97,0,0,0-1.345-.272,2.572,2.572,0,0,0-1.43.352,1.116,1.116,0,0,0-.534.983.928.928,0,0,0,.527.866,6.59,6.59,0,0,0,1.437.448l1.9.447a4.809,4.809,0,0,1,1.87.785,2.644,2.644,0,0,1,.967,2.208,3.1,3.1,0,0,1-1.145,2.462,4.841,4.841,0,0,1-3.237.979,5.3,5.3,0,0,1-3.359-.964,3.194,3.194,0,0,1-1.224-2.653Z"/><path class="e" d="M446.133,19.844a9.059,9.059,0,1,1,9.06-9.059A9.057,9.057,0,0,1,446.133,19.844Zm0-16.442a7.258,7.258,0,0,0-7.256,7.383,7.246,7.246,0,1,0,14.489,0A7.238,7.238,0,0,0,446.133,3.4Zm1.9,12.262-2-3.879h-1.251v3.879h-1.8V5.88h3.679a3.031,3.031,0,0,1,3.152,3,2.725,2.725,0,0,1-1.927,2.652l2.177,4.129Zm-1.6-8.258h-1.651v2.953h1.651a1.481,1.481,0,1,0,0-2.953Z"/></g></svg>